<svg width="137" height="32" viewBox="0 0 137 32" fill="none" xmlns="http://www.w3.org/2000/svg">
<g clip-path="url(#clip0_2039_44109)">
<rect width="32" height="32" rx="8" fill="#1ABED4"/>
<path d="M8.47558 6.90561H17.2972L23.5242 6.40015V8.92744L17.2972 9.4329V12.0866H24.6918V14.6139H17.2972V25.6001H14.7026V14.6139H7.30801V12.0866H14.7026V9.4329H8.86477L8.47558 6.90561Z" fill="white"/>
<path d="M8.9945 25.6001L12.6269 16.0076H10.0323L6.3999 25.6001H8.9945Z" fill="white"/>
<path d="M19.3729 16.0076L23.0053 25.6001H25.5999L21.9675 16.0076H19.3729Z" fill="white"/>
</g>
<path d="M60.28 12.376V27.544H57.784V26.704H46.216V27.544H43.72V12.376H50.224C50.344 11.776 50.44 11.176 50.512 10.6H41.272V8.2H46.912C46.576 7.432 46.216 6.736 45.808 6.064L48.256 5.128C48.736 5.992 49.168 7.024 49.576 8.2H54.328C54.808 7.216 55.24 6.184 55.624 5.08L58.096 5.968C57.784 6.784 57.448 7.528 57.112 8.2H62.728V10.6H53.176C53.08 11.2 52.96 11.8 52.816 12.376H60.28ZM46.216 24.448H57.784V22.576H46.216V24.448ZM46.216 20.416H57.784V18.592H46.216V20.416ZM46.216 16.432H57.784V14.632H46.216V16.432ZM74.776 9.136C72.592 9.256 70.24 9.328 67.744 9.328L66.88 6.88C73.576 6.88 79.24 6.448 83.896 5.584L85.216 7.816C82.96 8.32 80.32 8.704 77.32 8.968V13.144H86.632V15.592H79.072C80.752 18.424 83.512 20.968 87.352 23.224L85.552 25.528C81.88 22.936 79.144 20.056 77.32 16.936V27.424H74.776V17.032C72.952 20.368 70.216 23.176 66.592 25.48L65.128 23.104C68.68 21.112 71.344 18.616 73.072 15.592H65.872V13.144H74.776V9.136ZM93.04 8.968C92.608 9.592 92.128 10.12 91.648 10.6H94.768C94.864 10.072 94.936 9.544 94.984 8.968H93.04ZM94.048 12.88H89.752V10.6H90.808L89.632 9.136C90.736 8.176 91.696 6.808 92.536 5.032L94.792 5.536C94.624 5.968 94.456 6.4 94.264 6.784H100.72V8.968H97.336C97.288 9.544 97.24 10.072 97.168 10.6H101.392V12.88H96.664L96.592 13.096C98.368 14.008 99.856 14.896 101.08 15.808L99.664 17.224H108.88V27.568H106.336V26.68H95.248V27.568H92.728V17.8C92.152 18.136 91.552 18.472 90.928 18.784L89.248 16.744C91.696 15.664 93.304 14.368 94.048 12.88ZM95.248 24.472H106.336V23.08H95.248V24.472ZM95.248 20.92H106.336V19.432H95.248V20.92ZM93.568 17.224H98.896C98.032 16.456 97 15.712 95.776 14.944C95.224 15.76 94.48 16.528 93.568 17.224ZM102.04 6.856H110.632V16.048H102.04V6.856ZM108.184 13.864V9.064H104.488V13.864H108.184ZM116.68 10.624H126.04L124.288 9.496C125.464 8.128 126.304 6.664 126.784 5.128L129.184 5.656C129.064 5.992 128.944 6.304 128.824 6.616H135.136V8.728H131.752C132.016 9.112 132.256 9.496 132.448 9.832L130.432 10.6C130.096 9.952 129.712 9.328 129.28 8.728H127.816C127.408 9.4 126.976 10.048 126.496 10.624H133.048V20.512H130.288V21.64H135.448V23.8H130.288V27.544H127.816V23.8H121.6C121.36 24.376 121.048 24.904 120.688 25.336C119.848 26.296 118.48 27.04 116.608 27.568L115.336 25.576C116.992 25.12 118.12 24.568 118.696 23.92C118.72 23.872 118.744 23.848 118.768 23.8H113.992V21.64H119.584C119.608 21.472 119.632 21.328 119.632 21.184V20.512H116.68V10.624ZM122.128 20.512V21.184C122.128 21.328 122.104 21.496 122.104 21.64H127.816V20.512H122.128ZM130.6 18.64V17.68H119.128V18.64H130.6ZM119.128 15.976H130.6V15.112H119.128V15.976ZM119.128 13.408H130.6V12.52H119.128V13.408ZM117.904 8.848C117.352 9.736 116.752 10.552 116.08 11.32L114.016 10C115.456 8.464 116.464 6.832 117.064 5.08L119.44 5.608C119.296 5.992 119.128 6.376 118.984 6.736H124.408V8.848H121.936C122.176 9.184 122.392 9.496 122.584 9.808L120.544 10.576C120.232 9.976 119.872 9.4 119.464 8.848H117.904Z" fill="#343A40"/>
<defs>
<clipPath id="clip0_2039_44109">
<rect width="32" height="32" fill="white"/>
</clipPath>
</defs>
</svg>
